<svg width="130" height="52" viewBox="0 0 130 52" fill="none" xmlns="http://www.w3.org/2000/svg">
<g id="Logo - final">
<g id="HBH">
<path d="M52.2695 8.77124V39.0232H58.8691V25.592H66.5685V39.0232H73.1681V8.77124H66.5685V20.3382H58.8691V8.77124H52.2695Z" fill="white"/>
<path d="M87.085 34.532V25.4225H89.9265C90.6597 25.4225 91.3319 25.4931 91.943 25.6344C92.5541 25.7756 93.0735 26.0298 93.5012 26.397C93.9595 26.736 94.3109 27.202 94.5553 27.7952C94.8303 28.3601 94.9678 29.0804 94.9678 29.9561C94.9678 31.7073 94.4789 32.9078 93.5012 33.5575C92.5235 34.2072 91.2403 34.532 89.6515 34.532H87.085ZM87.085 21.1855V13.2624H89.4682C91.118 13.2624 92.3249 13.559 93.0887 14.1522C93.8526 14.7454 94.2345 15.7622 94.2345 17.2028C94.2345 18.6434 93.8067 19.6744 92.9512 20.2958C92.1263 20.889 90.7972 21.1855 88.964 21.1855H87.085ZM80.4855 8.77124V39.0232H91.6222C93.547 39.0232 95.1511 38.7831 96.4343 38.3029C97.7481 37.8227 98.8022 37.1872 99.5966 36.3963C100.422 35.5771 101.002 34.6309 101.338 33.5575C101.674 32.4841 101.842 31.3543 101.842 30.1679C101.842 28.1342 101.308 26.51 100.238 25.2954C99.1689 24.0808 97.7176 23.3605 95.8844 23.1346V23.0498C97.5343 22.6261 98.7717 21.8352 99.5966 20.6771C100.422 19.4908 100.834 18.0784 100.834 16.4401C100.834 14.9996 100.605 13.785 100.147 12.7964C99.6883 11.8077 99.0466 11.0168 98.2217 10.4237C97.3968 9.83048 96.4038 9.40679 95.2428 9.15257C94.1123 8.89835 92.8749 8.77124 91.5305 8.77124H80.4855Z" fill="white"/>
<path d="M108.701 8.77124V39.0232H115.301V25.592H123V39.0232H129.6V8.77124H123V20.3382H115.301V8.77124H108.701Z" fill="white"/>
</g>
<g id="Architects &#38; Partners">
<path d="M53.7942 49.2264H52.6934L54.0071 43.722H55.3942L56.6419 49.2264H55.541L55.2694 47.832H54.0658L53.7942 49.2264ZM54.5355 45.4614L54.2273 47.0247H55.108L54.8291 45.4614C54.785 45.2217 54.7508 44.9672 54.7263 44.6981C54.7214 44.615 54.7092 44.4926 54.6896 44.3312H54.675C54.6554 44.5807 54.6089 44.9575 54.5355 45.4614Z" fill="white"/>
<path d="M58.254 46.8559H58.0705V49.2264H57.0431V43.722H58.988C60.0301 43.722 60.5512 44.1624 60.5512 45.0431C60.5512 45.8504 60.2699 46.2932 59.7072 46.3715V46.3862C60.2356 46.4547 60.4998 46.7874 60.4998 47.3843C60.4998 48.4509 60.5732 49.0307 60.72 49.1237V49.2264H59.5898C59.5311 49.065 59.4944 48.6002 59.4797 47.832C59.4748 47.5727 59.4601 47.3916 59.4356 47.2889C59.3818 47.0932 59.2791 46.9733 59.1274 46.9293C58.961 46.8803 58.6699 46.8559 58.254 46.8559ZM58.0705 44.5293V46.0486H58.8779C59.2791 46.0486 59.4797 45.7843 59.4797 45.2559C59.4797 44.9672 59.421 44.7691 59.3035 44.6614C59.2057 44.5734 59.0491 44.5293 58.8338 44.5293H58.0705Z" fill="white"/>
<path d="M63.6214 47.2669H64.6562C64.6514 47.3354 64.644 47.4406 64.6342 47.5825C64.6049 48.1402 64.485 48.561 64.2746 48.8448C64.0251 49.1873 63.6336 49.3586 63.1003 49.3586C62.3322 49.3586 61.8209 49.1188 61.5664 48.6393C61.3903 48.3017 61.3022 47.695 61.3022 46.8192V46.0339C61.3022 45.2021 61.3976 44.6174 61.5884 44.2798C61.8478 43.815 62.3517 43.585 63.1003 43.5899C64.0251 43.5948 64.5266 44.0694 64.6049 45.0137C64.6244 45.2339 64.6318 45.3734 64.6269 45.4321H63.6141C63.5651 45.0211 63.5382 44.8082 63.5333 44.7936C63.4599 44.544 63.3156 44.4193 63.1003 44.4193C62.7529 44.4193 62.5279 44.5978 62.4251 44.955C62.3811 45.1116 62.3591 45.3954 62.3591 45.8064V47.3329C62.3591 48.1305 62.6062 48.5292 63.1003 48.5292C63.3401 48.5292 63.4942 48.3629 63.5627 48.0302C63.5725 47.9861 63.5921 47.7317 63.6214 47.2669Z" fill="white"/>
<path d="M66.3565 49.2264H65.329V43.722H66.3565V45.9018H67.795V43.722H68.8225V49.2264H67.795V46.7091H66.3565V49.2264Z" fill="white"/>
<path d="M70.7037 49.2264H69.6762V43.722H70.7037V49.2264Z" fill="white"/>
<path d="M71.1904 44.5293V43.722H74.6179V44.5293H73.4216V49.2264H72.3941V44.5293H71.1904Z" fill="white"/>
<path d="M77.9499 49.2264H75.0582V43.722H77.9499V44.5293H76.0857V45.9165H77.8031V46.7238H76.0857V48.4191H77.9499V49.2264Z" fill="white"/>
<path d="M80.8342 47.2669H81.869C81.8641 47.3354 81.8568 47.4406 81.847 47.5825C81.8176 48.1402 81.6978 48.561 81.4874 48.8448C81.2379 49.1873 80.8464 49.3586 80.3131 49.3586C79.5449 49.3586 79.0336 49.1188 78.7792 48.6393C78.6031 48.3017 78.515 47.695 78.515 46.8192V46.0339C78.515 45.2021 78.6104 44.6174 78.8012 44.2798C79.0605 43.815 79.5645 43.585 80.3131 43.5899C81.2379 43.5948 81.7394 44.0694 81.8176 45.0137C81.8372 45.2339 81.8446 45.3734 81.8397 45.4321H80.8269C80.7779 45.0211 80.751 44.8082 80.7461 44.7936C80.6727 44.544 80.5284 44.4193 80.3131 44.4193C79.9657 44.4193 79.7406 44.5978 79.6379 44.955C79.5939 45.1116 79.5718 45.3954 79.5718 45.8064V47.3329C79.5718 48.1305 79.8189 48.5292 80.3131 48.5292C80.5529 48.5292 80.707 48.3629 80.7755 48.0302C80.7853 47.9861 80.8048 47.7317 80.8342 47.2669Z" fill="white"/>
<path d="M82.1675 44.5293V43.722H85.5949V44.5293H84.3986V49.2264H83.3711V44.5293H82.1675Z" fill="white"/>
<path d="M89.1544 45.3954H88.1636C88.1685 45.0969 88.1416 44.8792 88.0829 44.7422C87.9948 44.5269 87.8211 44.4193 87.5618 44.4193C87.1851 44.4193 86.9967 44.5905 86.9967 44.933C86.9967 45.1189 87.0529 45.2755 87.1655 45.4027C87.2389 45.481 87.3783 45.5862 87.5838 45.7183C88.1954 46.1048 88.6113 46.4057 88.8315 46.621C89.1397 46.9244 89.2939 47.3085 89.2939 47.7733C89.2939 48.2821 89.1397 48.6736 88.8315 48.9476C88.5281 49.2216 88.1171 49.3586 87.5985 49.3586C86.4829 49.3586 85.9252 48.8008 85.9252 47.6852V47.2816H86.9526V47.6045C86.9526 48.221 87.1679 48.5292 87.5985 48.5292C88.0242 48.5292 88.237 48.3139 88.237 47.8834C88.237 47.6045 88.1 47.3623 87.826 47.1568C87.5373 46.966 87.2511 46.7727 86.9673 46.577C86.6248 46.3421 86.368 46.1097 86.1967 45.8798C86.0255 45.6449 85.9398 45.366 85.9398 45.0431C85.9398 44.0743 86.478 43.5899 87.5545 43.5899C88.259 43.5899 88.7287 43.8223 88.9636 44.2871C89.0859 44.522 89.1495 44.8914 89.1544 45.3954Z" fill="white"/>
<path d="M93.4307 45.4247C93.7145 45.1997 93.8564 44.977 93.8564 44.7569C93.8564 44.6345 93.8197 44.5342 93.7463 44.4559C93.6729 44.3728 93.5873 44.3287 93.4894 44.3238C93.2546 44.3141 93.1371 44.4339 93.1371 44.6835C93.1371 44.7911 93.1738 44.9183 93.2472 45.0651C93.3059 45.1874 93.3671 45.3073 93.4307 45.4247ZM93.849 46.1073L94.5389 47.3036C94.6368 47.0002 94.6931 46.6651 94.7077 46.2981H95.5224C95.5224 46.9782 95.3609 47.5947 95.038 48.1476L95.6985 49.2485H94.5977L94.3995 48.8815C94.0668 49.1995 93.6387 49.3586 93.1151 49.3586C92.6943 49.3586 92.3445 49.1995 92.0656 48.8815C91.7867 48.5635 91.6473 48.1696 91.6473 47.6999C91.6473 47.3182 91.7427 46.9831 91.9335 46.6944C92.0901 46.4547 92.3421 46.2125 92.6895 45.9678C92.4008 45.4688 92.2564 45.0724 92.2564 44.7789C92.2564 44.3777 92.391 44.0719 92.6601 43.8615C92.8901 43.6804 93.1787 43.5899 93.5261 43.5899C93.8344 43.5899 94.101 43.6902 94.3261 43.8908C94.5658 44.111 94.6857 44.3923 94.6857 44.7348C94.6857 45.3073 94.4068 45.7648 93.849 46.1073ZM94.0105 48.2283L93.1225 46.7091C93.0148 46.7531 92.9047 46.8485 92.7922 46.9953C92.665 47.1764 92.6014 47.3672 92.6014 47.5678C92.6014 47.7929 92.6674 48.0032 92.7995 48.199C92.9463 48.4191 93.1274 48.5292 93.3426 48.5292C93.5628 48.5292 93.7854 48.4289 94.0105 48.2283Z" fill="white"/>
<path d="M99.1479 44.5293V46.1146H99.6984C100.197 46.1146 100.447 45.8284 100.447 45.2559C100.447 44.9575 100.381 44.7569 100.249 44.6541C100.136 44.5709 99.9259 44.5293 99.6176 44.5293H99.1479ZM99.1479 49.2264H98.1204V43.722H100.219C100.674 43.722 101.012 43.8859 101.232 44.2138C101.413 44.4829 101.504 44.84 101.504 45.2853C101.504 45.8822 101.333 46.3177 100.99 46.5917C100.711 46.8118 100.327 46.9219 99.8378 46.9219H99.1479V49.2264Z" fill="white"/>
<path d="M102.72 49.2264H101.619L102.932 43.722H104.32L105.567 49.2264H104.466L104.195 47.832H102.991L102.72 49.2264ZM103.461 45.4614L103.153 47.0247H104.033L103.754 45.4614C103.71 45.2217 103.676 44.9672 103.652 44.6981C103.647 44.615 103.635 44.4926 103.615 44.3312H103.6C103.581 44.5807 103.534 44.9575 103.461 45.4614Z" fill="white"/>
<path d="M107.179 46.8559H106.996V49.2264H105.968V43.722H107.913C108.956 43.722 109.477 44.1624 109.477 45.0431C109.477 45.8504 109.195 46.2932 108.633 46.3715V46.3862C109.161 46.4547 109.425 46.7874 109.425 47.3843C109.425 48.4509 109.499 49.0307 109.645 49.1237V49.2264H108.515C108.456 49.065 108.42 48.6002 108.405 47.832C108.4 47.5727 108.386 47.3916 108.361 47.2889C108.307 47.0932 108.204 46.9733 108.053 46.9293C107.886 46.8803 107.595 46.8559 107.179 46.8559ZM106.996 44.5293V46.0486H107.803C108.204 46.0486 108.405 45.7843 108.405 45.2559C108.405 44.9672 108.346 44.7691 108.229 44.6614C108.131 44.5734 107.975 44.5293 107.759 44.5293H106.996Z" fill="white"/>
<path d="M109.949 44.5293V43.722H113.376V44.5293H112.18V49.2264H111.152V44.5293H109.949Z" fill="white"/>
<path d="M116.305 44.8009V43.722H117.332V49.2264H116.26L115.461 47.2669C115.201 46.6308 114.957 45.9018 114.727 45.0798H114.712C114.82 46.4155 114.873 47.4528 114.873 48.1916V49.2264H113.846V43.722H114.91L115.71 45.7256C115.984 46.4155 116.229 47.1446 116.444 47.9127H116.459C116.356 46.5134 116.305 45.4761 116.305 44.8009Z" fill="white"/>
<path d="M121.048 49.2264H118.156V43.722H121.048V44.5293H119.184V45.9165H120.901V46.7238H119.184V48.4191H121.048V49.2264Z" fill="white"/>
<path d="M122.905 46.8559H122.721V49.2264H121.694V43.722H123.639C124.681 43.722 125.202 44.1624 125.202 45.0431C125.202 45.8504 124.921 46.2932 124.358 46.3715V46.3862C124.886 46.4547 125.151 46.7874 125.151 47.3843C125.151 48.4509 125.224 49.0307 125.371 49.1237V49.2264H124.241C124.182 49.065 124.145 48.6002 124.131 47.832C124.126 47.5727 124.111 47.3916 124.087 47.2889C124.033 47.0932 123.93 46.9733 123.778 46.9293C123.612 46.8803 123.321 46.8559 122.905 46.8559ZM122.721 44.5293V46.0486H123.529C123.93 46.0486 124.131 45.7843 124.131 45.2559C124.131 44.9672 124.072 44.7691 123.954 44.6614C123.857 44.5734 123.7 44.5293 123.485 44.5293H122.721Z" fill="white"/>
<path d="M129.138 45.3954H128.148C128.152 45.0969 128.125 44.8792 128.067 44.7422C127.979 44.5269 127.805 44.4193 127.546 44.4193C127.169 44.4193 126.981 44.5905 126.981 44.933C126.981 45.1189 127.037 45.2755 127.149 45.4027C127.223 45.481 127.362 45.5862 127.568 45.7183C128.179 46.1048 128.595 46.4057 128.815 46.621C129.124 46.9244 129.278 47.3085 129.278 47.7733C129.278 48.2821 129.124 48.6736 128.815 48.9476C128.512 49.2216 128.101 49.3586 127.582 49.3586C126.467 49.3586 125.909 48.8008 125.909 47.6852V47.2816H126.937V47.6045C126.937 48.221 127.152 48.5292 127.582 48.5292C128.008 48.5292 128.221 48.3139 128.221 47.8834C128.221 47.6045 128.084 47.3623 127.81 47.1568C127.521 46.966 127.235 46.7727 126.951 46.577C126.609 46.3421 126.352 46.1097 126.181 45.8798C126.009 45.6449 125.924 45.366 125.924 45.0431C125.924 44.0743 126.462 43.5899 127.538 43.5899C128.243 43.5899 128.713 43.8223 128.947 44.2871C129.07 44.522 129.133 44.8914 129.138 45.3954Z" fill="white"/>
</g>
<path id="Union" fill-rule="evenodd" clip-rule="evenodd" d="M31.9406 21.2345V5.45824L22.4805 0L20.4583 1.16747V1.15661L12.9699 5.48989V5.49074V46.4534L22.4805 51.9116L31.9406 46.4534V23.9587L24.4521 30.947V46.4209L22.4552 47.6688L20.4583 46.4209V5.49074L22.4552 4.24284L24.4521 5.49074V21.3563L22.5051 23.3031V30.1387L31.9406 21.2345ZM44.9303 13.0211V39.0099L37.4419 43.3075V38.9774V8.69056L44.9303 13.0211ZM0 13.0212V39.0099L7.4884 43.3076V38.9774V8.69057L0 13.0212ZM8.48645 36.5112V18.509L11.981 16.175V34.3198L8.48645 36.5112Z" fill="white"/>
</g>
</svg>
